<svg width="138" height="40" viewBox="0 0 138 40" fill="none" xmlns="http://www.w3.org/2000/svg">
<path d="M11.7852 23.127H17.4939C18.9762 23.127 20.2849 23.4275 21.42 24.0284C22.555 24.616 23.4364 25.4439 24.064 26.5122C24.6917 27.5672 25.0055 28.7757 25.0055 30.1378C25.0055 31.4999 24.6917 32.7151 24.064 33.7834C23.4364 34.8384 22.555 35.6663 21.42 36.2672C20.2849 36.8548 18.9762 37.1486 17.4939 37.1486H11.7852V23.127ZM17.4138 35.8666C18.6424 35.8666 19.7173 35.6262 20.6388 35.1455C21.5602 34.6514 22.2746 33.977 22.7821 33.1224C23.2895 32.2544 23.5432 31.2595 23.5432 30.1378C23.5432 29.0161 23.2895 28.0279 22.7821 27.1732C22.2746 26.3052 21.5602 25.6309 20.6388 25.1501C19.7173 24.656 18.6424 24.409 17.4138 24.409H13.2674V35.8666H17.4138Z" fill="white"/>
<path d="M34.4634 37.2688C33.0746 37.2688 31.8127 36.9616 30.6776 36.3473C29.5559 35.7197 28.6746 34.8651 28.0336 33.7834C27.4059 32.7017 27.0921 31.4865 27.0921 30.1378C27.0921 28.7891 27.4059 27.5739 28.0336 26.4922C28.6746 25.4105 29.5559 24.5626 30.6776 23.9483C31.8127 23.3207 33.0746 23.0068 34.4634 23.0068C35.8522 23.0068 37.1008 23.314 38.2092 23.9283C39.3309 24.5425 40.2123 25.3972 40.8533 26.4922C41.4943 27.5739 41.8147 28.7891 41.8147 30.1378C41.8147 31.4865 41.4943 32.7084 40.8533 33.8034C40.2123 34.8851 39.3309 35.7331 38.2092 36.3473C37.1008 36.9616 35.8522 37.2688 34.4634 37.2688ZM34.4634 35.9467C35.5718 35.9467 36.5734 35.6997 37.4681 35.2056C38.3628 34.6981 39.0639 34.0037 39.5713 33.1224C40.0787 32.2277 40.3325 31.2328 40.3325 30.1378C40.3325 29.0428 40.0787 28.0546 39.5713 27.1732C39.0639 26.2785 38.3628 25.5841 37.4681 25.09C36.5734 24.5826 35.5718 24.3289 34.4634 24.3289C33.3551 24.3289 32.3469 24.5826 31.4388 25.09C30.5441 25.5841 29.8363 26.2785 29.3155 27.1732C28.8081 28.0546 28.5544 29.0428 28.5544 30.1378C28.5544 31.2328 28.8081 32.2277 29.3155 33.1224C29.8363 34.0037 30.5441 34.6981 31.4388 35.2056C32.3469 35.6997 33.3551 35.9467 34.4634 35.9467Z" fill="white"/>
<path d="M59.6996 23.127V37.1486H58.2774V25.9313L52.7689 35.3658H52.0678L46.5594 25.9914V37.1486H45.1372V23.127H46.3591L52.4484 33.523L58.4777 23.127H59.6996Z" fill="white"/>
<path d="M70.3976 37.2688C69.0088 37.2688 67.7468 36.9616 66.6118 36.3473C65.49 35.7197 64.6087 34.8651 63.9677 33.7834C63.3401 32.7017 63.0263 31.4865 63.0263 30.1378C63.0263 28.7891 63.3401 27.5739 63.9677 26.4922C64.6087 25.4105 65.49 24.5626 66.6118 23.9483C67.7468 23.3207 69.0088 23.0068 70.3976 23.0068C71.7864 23.0068 73.035 23.314 74.1433 23.9283C75.2651 24.5425 76.1464 25.3972 76.7874 26.4922C77.4284 27.5739 77.7489 28.7891 77.7489 30.1378C77.7489 31.4865 77.4284 32.7084 76.7874 33.8034C76.1464 34.8851 75.2651 35.7331 74.1433 36.3473C73.035 36.9616 71.7864 37.2688 70.3976 37.2688ZM70.3976 35.9467C71.5059 35.9467 72.5075 35.6997 73.4022 35.2056C74.2969 34.6981 74.998 34.0037 75.5054 33.1224C76.0129 32.2277 76.2666 31.2328 76.2666 30.1378C76.2666 29.0428 76.0129 28.0546 75.5054 27.1732C74.998 26.2785 74.2969 25.5841 73.4022 25.09C72.5075 24.5826 71.5059 24.3289 70.3976 24.3289C69.2892 24.3289 68.281 24.5826 67.3729 25.09C66.4782 25.5841 65.7705 26.2785 65.2497 27.1732C64.7422 28.0546 64.4885 29.0428 64.4885 30.1378C64.4885 31.2328 64.7422 32.2277 65.2497 33.1224C65.7705 34.0037 66.4782 34.6981 67.3729 35.2056C68.281 35.6997 69.2892 35.9467 70.3976 35.9467Z" fill="white"/>
<path d="M84.9373 37.2688C83.8957 37.2688 82.8941 37.1018 81.9327 36.768C80.9845 36.4341 80.2501 35.9935 79.7293 35.446L80.3102 34.3042C80.8176 34.8116 81.492 35.2256 82.3333 35.5461C83.1746 35.8532 84.0426 36.0068 84.9373 36.0068C86.1925 36.0068 87.134 35.7798 87.7616 35.3258C88.3892 34.8584 88.7031 34.2575 88.7031 33.523C88.7031 32.9621 88.5295 32.5148 88.1823 32.1809C87.8484 31.8471 87.4344 31.5934 86.9404 31.4198C86.4463 31.2328 85.7585 31.0325 84.8772 30.8188C83.8222 30.5518 82.9809 30.298 82.3533 30.0577C81.7257 29.8039 81.1848 29.4234 80.7308 28.9159C80.2901 28.4085 80.0698 27.7207 80.0698 26.8527C80.0698 26.145 80.2567 25.504 80.6307 24.9298C81.0046 24.3422 81.5788 23.8748 82.3533 23.5276C83.1278 23.1804 84.0893 23.0068 85.2377 23.0068C86.039 23.0068 86.8202 23.1203 87.5813 23.3474C88.3559 23.561 89.0236 23.8615 89.5844 24.2487L89.0836 25.4306C88.4961 25.0433 87.8684 24.7562 87.2007 24.5692C86.5331 24.3689 85.8787 24.2688 85.2377 24.2688C84.0092 24.2688 83.0811 24.5091 82.4535 24.9899C81.8392 25.4573 81.532 26.0649 81.532 26.8127C81.532 27.3735 81.699 27.8276 82.0328 28.1748C82.38 28.5086 82.8073 28.769 83.3148 28.956C83.8356 29.1296 84.53 29.3232 85.398 29.5369C86.4262 29.7906 87.2542 30.0443 87.8818 30.298C88.5228 30.5384 89.0636 30.9123 89.5043 31.4198C89.945 31.9139 90.1653 32.5882 90.1653 33.4429C90.1653 34.1506 89.9717 34.7983 89.5844 35.3859C89.2105 35.9601 88.6296 36.4208 87.8417 36.768C87.0539 37.1018 86.0857 37.2688 84.9373 37.2688Z" fill="white"/>
<path d="M102.229 29.9175C103.15 30.1178 103.858 30.5184 104.352 31.1193C104.859 31.7069 105.113 32.468 105.113 33.4028C105.113 34.6047 104.666 35.5328 103.771 36.1871C102.89 36.8281 101.581 37.1486 99.8449 37.1486H93.395V23.127H99.4443C101.007 23.127 102.215 23.4408 103.07 24.0685C103.938 24.6961 104.372 25.5841 104.372 26.7326C104.372 27.5071 104.178 28.1681 103.791 28.7156C103.417 29.2498 102.896 29.6504 102.229 29.9175ZM94.8772 24.3489V29.4367H99.3441C100.479 29.4367 101.354 29.2231 101.968 28.7957C102.582 28.3551 102.89 27.7207 102.89 26.8928C102.89 26.0649 102.582 25.4372 101.968 25.0099C101.354 24.5692 100.479 24.3489 99.3441 24.3489H94.8772ZM99.8248 35.9267C101.08 35.9267 102.028 35.713 102.669 35.2857C103.31 34.8584 103.631 34.1907 103.631 33.2826C103.631 31.5333 102.362 30.6586 99.8248 30.6586H94.8772V35.9267H99.8248Z" fill="white"/>
<path d="M114.626 37.2688C113.237 37.2688 111.975 36.9616 110.84 36.3473C109.718 35.7197 108.837 34.8651 108.196 33.7834C107.568 32.7017 107.254 31.4865 107.254 30.1378C107.254 28.7891 107.568 27.5739 108.196 26.4922C108.837 25.4105 109.718 24.5626 110.84 23.9483C111.975 23.3207 113.237 23.0068 114.626 23.0068C116.015 23.0068 117.263 23.314 118.371 23.9283C119.493 24.5425 120.375 25.3972 121.016 26.4922C121.657 27.5739 121.977 28.7891 121.977 30.1378C121.977 31.4865 121.657 32.7084 121.016 33.8034C120.375 34.8851 119.493 35.7331 118.371 36.3473C117.263 36.9616 116.015 37.2688 114.626 37.2688ZM114.626 35.9467C115.734 35.9467 116.736 35.6997 117.63 35.2056C118.525 34.6981 119.226 34.0037 119.734 33.1224C120.241 32.2277 120.495 31.2328 120.495 30.1378C120.495 29.0428 120.241 28.0546 119.734 27.1732C119.226 26.2785 118.525 25.5841 117.63 25.09C116.736 24.5826 115.734 24.3289 114.626 24.3289C113.517 24.3289 112.509 24.5826 111.601 25.09C110.706 25.5841 109.999 26.2785 109.478 27.1732C108.97 28.0546 108.717 29.0428 108.717 30.1378C108.717 31.2328 108.97 32.2277 109.478 33.1224C109.999 34.0037 110.706 34.6981 111.601 35.2056C112.509 35.6997 113.517 35.9467 114.626 35.9467Z" fill="white"/>
<path d="M134.874 37.1486L131.669 32.6416C131.309 32.6817 130.935 32.7017 130.548 32.7017H126.782V37.1486H125.299V23.127H130.548C132.337 23.127 133.739 23.5543 134.754 24.409C135.769 25.2636 136.276 26.4388 136.276 27.9344C136.276 29.0294 135.996 29.9575 135.435 30.7187C134.888 31.4665 134.1 32.0073 133.071 32.3412L136.497 37.1486H134.874ZM130.507 31.4398C131.896 31.4398 132.958 31.1327 133.692 30.5184C134.427 29.9041 134.794 29.0428 134.794 27.9344C134.794 26.7993 134.427 25.9313 133.692 25.3304C132.958 24.7161 131.896 24.409 130.507 24.409H126.782V31.4398H130.507Z" fill="white"/>
<path d="M7.70415 37.1751H1.28403H0V35.8911V13.9664L29.9506 0L59.8356 13.9356L59.8356 13.9356L59.8356 18.9419H58.5515V14.7536L29.9502 1.41659L1.28402 14.7839L1.28403 35.8911H7.70415V37.1751Z" fill="#8DB338"/>
</svg>
