<svg width="173" height="50" viewBox="0 0 173 50" fill="none" xmlns="http://www.w3.org/2000/svg">
<path d="M14.7314 28.9085H21.8674C23.7203 28.9085 25.3561 29.2841 26.775 30.0353C28.1938 30.7697 29.2955 31.8046 30.08 33.14C30.8646 34.4587 31.2568 35.9694 31.2568 37.672C31.2568 39.3746 30.8646 40.8936 30.08 42.229C29.2955 43.5477 28.1938 44.5826 26.775 45.3338C25.3561 46.0682 23.7203 46.4355 21.8674 46.4355H14.7314V28.9085ZM21.7673 44.833C23.303 44.833 24.6467 44.5325 25.7985 43.9316C26.9502 43.314 27.8433 42.471 28.4776 41.4027C29.1119 40.3177 29.429 39.0742 29.429 37.672C29.429 36.2698 29.1119 35.0346 28.4776 33.9663C27.8433 32.8813 26.9502 32.0383 25.7985 31.4374C24.6467 30.8198 23.303 30.511 21.7673 30.511H16.5843V44.833H21.7673Z" fill="#49423D"/>
<path d="M43.0793 46.5857C41.3433 46.5857 39.7659 46.2018 38.347 45.4339C36.9449 44.6494 35.8432 43.5811 35.042 42.229C34.2574 40.8769 33.8651 39.3579 33.8651 37.672C33.8651 35.9861 34.2574 34.4671 35.042 33.115C35.8432 31.7629 36.9449 30.703 38.347 29.9351C39.7659 29.1506 41.3433 28.7583 43.0793 28.7583C44.8153 28.7583 46.376 29.1422 47.7615 29.9101C49.1637 30.6779 50.2654 31.7462 51.0666 33.115C51.8678 34.4671 52.2684 35.9861 52.2684 37.672C52.2684 39.3579 51.8678 40.8853 51.0666 42.254C50.2654 43.6061 49.1637 44.6661 47.7615 45.4339C46.376 46.2018 44.8153 46.5857 43.0793 46.5857ZM43.0793 44.9332C44.4648 44.9332 45.7167 44.6244 46.8351 44.0067C47.9535 43.3724 48.8298 42.5044 49.4641 41.4027C50.0984 40.2843 50.4156 39.0408 50.4156 37.672C50.4156 36.3032 50.0984 35.068 49.4641 33.9663C48.8298 32.8479 47.9535 31.9799 46.8351 31.3623C45.7167 30.728 44.4648 30.4108 43.0793 30.4108C41.6938 30.4108 40.4336 30.728 39.2985 31.3623C38.1801 31.9799 37.2954 32.8479 36.6444 33.9663C36.0101 35.068 35.693 36.3032 35.693 37.672C35.693 39.0408 36.0101 40.2843 36.6444 41.4027C37.2954 42.5044 38.1801 43.3724 39.2985 44.0067C40.4336 44.6244 41.6938 44.9332 43.0793 44.9332Z" fill="#49423D"/>
<path d="M74.6245 28.9085V46.4355H72.8467V32.4139L65.9612 44.207H65.0848L58.1992 32.489V46.4355H56.4215V28.9085H57.9488L65.5605 41.9035L73.0971 28.9085H74.6245Z" fill="#49423D"/>
<path d="M87.997 46.5857C86.261 46.5857 84.6835 46.2018 83.2647 45.4339C81.8625 44.6494 80.7609 43.5811 79.9596 42.229C79.1751 40.8769 78.7828 39.3579 78.7828 37.672C78.7828 35.9861 79.1751 34.4671 79.9596 33.115C80.7609 31.7629 81.8625 30.703 83.2647 29.9351C84.6835 29.1506 86.261 28.7583 87.997 28.7583C89.733 28.7583 91.2937 29.1422 92.6792 29.9101C94.0813 30.6779 95.183 31.7462 95.9842 33.115C96.7855 34.4671 97.1861 35.9861 97.1861 37.672C97.1861 39.3579 96.7855 40.8853 95.9842 42.254C95.183 43.6061 94.0813 44.6661 92.6792 45.4339C91.2937 46.2018 89.733 46.5857 87.997 46.5857ZM87.997 44.9332C89.3824 44.9332 90.6344 44.6244 91.7527 44.0067C92.8711 43.3724 93.7475 42.5044 94.3818 41.4027C95.0161 40.2843 95.3332 39.0408 95.3332 37.672C95.3332 36.3032 95.0161 35.068 94.3818 33.9663C93.7475 32.8479 92.8711 31.9799 91.7527 31.3623C90.6344 30.728 89.3824 30.4108 87.997 30.4108C86.6115 30.4108 85.3512 30.728 84.2162 31.3623C83.0978 31.9799 82.2131 32.8479 81.5621 33.9663C80.9278 35.068 80.6106 36.3032 80.6106 37.672C80.6106 39.0408 80.9278 40.2843 81.5621 41.4027C82.2131 42.5044 83.0978 43.3724 84.2162 44.0067C85.3512 44.6244 86.6115 44.9332 87.997 44.9332Z" fill="#49423D"/>
<path d="M106.172 46.5857C104.87 46.5857 103.618 46.377 102.416 45.9597C101.231 45.5424 100.313 44.9916 99.6616 44.3072L100.388 42.88C101.022 43.5143 101.865 44.0318 102.917 44.4324C103.968 44.8163 105.053 45.0083 106.172 45.0083C107.741 45.0083 108.917 44.7245 109.702 44.157C110.487 43.5727 110.879 42.8216 110.879 41.9035C110.879 41.2024 110.662 40.6432 110.228 40.2259C109.811 39.8086 109.293 39.4915 108.675 39.2745C108.058 39.0408 107.198 38.7904 106.096 38.5233C104.778 38.1895 103.726 37.8723 102.942 37.5718C102.157 37.2547 101.481 36.779 100.914 36.1447C100.363 35.5103 100.087 34.6507 100.087 33.5657C100.087 32.681 100.321 31.8798 100.788 31.162C101.256 30.4275 101.973 29.8433 102.942 29.4093C103.91 28.9753 105.112 28.7583 106.547 28.7583C107.549 28.7583 108.525 28.9002 109.477 29.184C110.445 29.451 111.279 29.8266 111.981 30.3107L111.355 31.788C110.62 31.3039 109.836 30.945 109.001 30.7113C108.166 30.4609 107.348 30.3357 106.547 30.3357C105.011 30.3357 103.851 30.6362 103.067 31.2371C102.299 31.8213 101.915 32.5808 101.915 33.5156C101.915 34.2167 102.124 34.7842 102.541 35.2182C102.975 35.6355 103.509 35.961 104.143 36.1947C104.794 36.4117 105.662 36.6538 106.747 36.9208C108.033 37.238 109.068 37.5552 109.852 37.8723C110.653 38.1728 111.33 38.6402 111.88 39.2745C112.431 39.8921 112.707 40.735 112.707 41.8033C112.707 42.688 112.465 43.4976 111.981 44.2321C111.513 44.9499 110.787 45.5257 109.802 45.9597C108.817 46.377 107.607 46.5857 106.172 46.5857Z" fill="#49423D"/>
<path d="M127.786 37.3966C128.937 37.647 129.822 38.1477 130.44 38.8989C131.074 39.6333 131.391 40.5848 131.391 41.7533C131.391 43.2556 130.832 44.4157 129.714 45.2336C128.612 46.0349 126.976 46.4355 124.806 46.4355H116.744V28.9085H124.305C126.258 28.9085 127.769 29.3008 128.837 30.0853C129.922 30.8699 130.465 31.9799 130.465 33.4155C130.465 34.3836 130.223 35.2099 129.739 35.8943C129.271 36.562 128.62 37.0627 127.786 37.3966ZM118.597 30.4359V36.7957H124.18C125.599 36.7957 126.692 36.5286 127.46 35.9944C128.228 35.4436 128.612 34.6507 128.612 33.6158C128.612 32.5808 128.228 31.7963 127.46 31.2621C126.692 30.7113 125.599 30.4359 124.18 30.4359H118.597ZM124.781 44.9081C126.35 44.9081 127.535 44.641 128.336 44.1069C129.138 43.5727 129.538 42.7381 129.538 41.603C129.538 39.4163 127.953 38.323 124.781 38.323H118.597V44.9081H124.781Z" fill="#49423D"/>
<path d="M143.282 46.5857C141.546 46.5857 139.969 46.2018 138.55 45.4339C137.148 44.6494 136.046 43.5811 135.245 42.229C134.46 40.8769 134.068 39.3579 134.068 37.672C134.068 35.9861 134.46 34.4671 135.245 33.115C136.046 31.7629 137.148 30.703 138.55 29.9351C139.969 29.1506 141.546 28.7583 143.282 28.7583C145.018 28.7583 146.579 29.1422 147.964 29.9101C149.366 30.6779 150.468 31.7462 151.269 33.115C152.071 34.4671 152.471 35.9861 152.471 37.672C152.471 39.3579 152.071 40.8853 151.269 42.254C150.468 43.6061 149.366 44.6661 147.964 45.4339C146.579 46.2018 145.018 46.5857 143.282 46.5857ZM143.282 44.9332C144.668 44.9332 145.92 44.6244 147.038 44.0067C148.156 43.3724 149.033 42.5044 149.667 41.4027C150.301 40.2843 150.618 39.0408 150.618 37.672C150.618 36.3032 150.301 35.068 149.667 33.9663C149.033 32.8479 148.156 31.9799 147.038 31.3623C145.92 30.728 144.668 30.4108 143.282 30.4108C141.897 30.4108 140.636 30.728 139.501 31.3623C138.383 31.9799 137.498 32.8479 136.847 33.9663C136.213 35.068 135.896 36.3032 135.896 37.672C135.896 39.0408 136.213 40.2843 136.847 41.4027C137.498 42.5044 138.383 43.3724 139.501 44.0067C140.636 44.6244 141.897 44.9332 143.282 44.9332Z" fill="#49423D"/>
<path d="M168.593 46.4355L164.587 40.8018C164.136 40.8519 163.668 40.8769 163.184 40.8769H158.477V46.4355H156.624V28.9085H163.184C165.421 28.9085 167.174 29.4427 168.442 30.511C169.711 31.5793 170.345 33.0482 170.345 34.9178C170.345 36.2865 169.995 37.4467 169.294 38.3981C168.609 39.3329 167.625 40.0089 166.339 40.4262L170.621 46.4355H168.593ZM163.134 39.2995C164.87 39.2995 166.197 38.9156 167.115 38.1477C168.034 37.3799 168.493 36.3032 168.493 34.9178C168.493 33.4989 168.034 32.4139 167.115 31.6628C166.197 30.8949 164.87 30.511 163.134 30.511H158.477V39.2995H163.134Z" fill="#49423D"/>
<path d="M9.63019 46.4689H1.60503H0V44.8638V17.4579L37.4382 0L74.7944 17.4195L74.7945 17.4195L74.7944 23.6774H73.1894V18.442L37.4378 1.77074L1.60503 18.4798L1.60503 44.8638H9.63019V46.4689Z" fill="#8DB338"/>
</svg>
